<svg width="41" height="32" viewBox="0 0 41 32" fill="none" xmlns="http://www.w3.org/2000/svg">
<path fill-rule="evenodd" clip-rule="evenodd" d="M20.182 31.0335C13.5763 31.0265 7.48323 27.4722 4.22554 21.7256C3.5114 20.4679 3.95204 18.8694 5.20973 18.1552C6.46743 17.4411 8.06591 17.8817 8.78005 19.1394C11.101 23.2503 15.456 25.7927 20.1768 25.7927C24.8976 25.7927 29.2526 23.2503 31.5735 19.1394C32.0355 18.3259 32.8964 17.8205 33.832 17.8138C34.7676 17.8071 35.6357 18.3 36.1093 19.1069C36.5829 19.9137 36.59 20.912 36.1281 21.7256C32.8674 27.4642 26.7823 31.0161 20.182 31.0335ZM35.6106 2.33636e-05C33.0085 2.33636e-05 30.8991 2.10946 30.8991 4.71159C30.8991 7.31371 33.0085 9.42315 35.6106 9.42315C38.2128 9.42315 40.3222 7.31371 40.3222 4.71159C40.3222 3.462 39.8258 2.2636 38.9422 1.38001C38.0586 0.496419 36.8602 2.33636e-05 35.6106 2.33636e-05ZM4.71156 1.16045e-05C2.10944 1.16045e-05 0 2.10946 0 4.71159C0 7.31371 2.10944 9.42315 4.71156 9.42315C7.31369 9.42315 9.42314 7.31371 9.42314 4.71159C9.42592 3.46115 8.93042 2.26112 8.04622 1.37693C7.16203 0.492735 5.962 -0.00276475 4.71156 1.16045e-05Z" fill="white"/>
</svg>
