<svg width="60" height="61" viewBox="0 0 60 61" fill="none" xmlns="http://www.w3.org/2000/svg">
<path d="M30 60.2749C46.5685 60.2749 60 46.8434 60 30.2749C60 13.7064 46.5685 0.274902 30 0.274902C13.4315 0.274902 0 13.7064 0 30.2749C0 46.8434 13.4315 60.2749 30 60.2749Z" fill="white"/>
<path fill-rule="evenodd" clip-rule="evenodd" d="M18.1836 57.2975C22.0478 59.204 26.398 60.2752 30.9983 60.2752C41.9684 60.2752 51.5159 54.184 56.443 45.1993L43.3624 32.1187L18.1836 57.2975Z" fill="#FFFF00"/>
<path fill-rule="evenodd" clip-rule="evenodd" d="M4.21484 15.9919C9.0332 6.65706 18.7717 0.274902 30.0008 0.274902C34.6851 0.274902 39.11 1.38553 43.0265 3.35783L17.3037 29.0807L4.21484 15.9919Z" fill="#00EFC8"/>
<path d="M30.5 53.2749C42.9264 53.2749 53 43.2013 53 30.7749C53 18.3485 42.9264 8.2749 30.5 8.2749C18.0736 8.2749 8 18.3485 8 30.7749C8 43.2013 18.0736 53.2749 30.5 53.2749Z" fill="white"/>
<path fill-rule="evenodd" clip-rule="evenodd" d="M30.5 50.7749C41.5457 50.7749 50.5 41.8206 50.5 30.7749C50.5 19.7292 41.5457 10.7749 30.5 10.7749C19.4543 10.7749 10.5 19.7292 10.5 30.7749C10.5 41.8206 19.4543 50.7749 30.5 50.7749Z" stroke="black" stroke-width="5"/>
<path d="M36 29.2749H39V32.2749H36V29.2749ZM30 29.2749H33V32.2749H30V29.2749ZM30 35.2749H33V38.2749H30V35.2749ZM36 35.2749H39V38.2749H36V35.2749ZM30 41.2749H33V44.2749H30V41.2749ZM30 47.2749H33V50.2749H30V47.2749ZM36 41.2749H39V44.2749H36V41.2749ZM42 41.2749H45V44.2749H42V41.2749ZM42 23.2749H45V26.2749H42V23.2749ZM42 17.2749H45V20.2749H42V17.2749ZM42 29.2749H45V32.2749H42V29.2749ZM42 35.2749H45V38.2749H42V35.2749ZM30 23.2749H33V26.2749H30V23.2749ZM36 17.2749H39V20.2749H36V17.2749ZM30 17.2749H33V20.2749H30V17.2749ZM30 11.2749H33V14.2749H30V11.2749ZM36 23.2749H39V26.2749H36V23.2749Z" fill="url(#paint0_linear)"/>
<path d="M36 29.2749H39V32.2749H36V29.2749ZM30 29.2749H33V32.2749H30V29.2749ZM30 35.2749H33V38.2749H30V35.2749ZM36 35.2749H39V38.2749H36V35.2749ZM30 41.2749H33V44.2749H30V41.2749ZM30 47.2749H33V50.2749H30V47.2749ZM36 41.2749H39V44.2749H36V41.2749ZM42 41.2749H45V44.2749H42V41.2749ZM42 23.2749H45V26.2749H42V23.2749ZM42 17.2749H45V20.2749H42V17.2749ZM42 29.2749H45V32.2749H42V29.2749ZM42 35.2749H45V38.2749H42V35.2749ZM30 23.2749H33V26.2749H30V23.2749ZM36 17.2749H39V20.2749H36V17.2749ZM30 17.2749H33V20.2749H30V17.2749ZM30 11.2749H33V14.2749H30V11.2749ZM36 23.2749H39V26.2749H36V23.2749Z" fill="#111112"/>
<defs>
<linearGradient id="paint0_linear" x1="37.5" y1="11.2749" x2="37.5" y2="49.8031" gradientUnits="userSpaceOnUse">
<stop stop-color="#444444"/>
<stop offset="1" stop-color="#222222"/>
</linearGradient>
</defs>
</svg>
