<svg width="821" height="582" viewBox="0 0 821 582" fill="none" xmlns="http://www.w3.org/2000/svg">
<g clip-path="url(#clip0)">
<rect width="821" height="582" fill="#F5F5F5"/>
<g clip-path="url(#clip1)">
<rect width="922" height="717" fill="white"/>
<rect width="922" height="122" fill="white"/>
<path d="M64.8062 66.6021H66.8985V60.7299L71.7047 52.3906H69.2967L65.8524 58.3614L62.4081 52.3906H60L64.8062 60.7299V66.6021ZM76.5247 66.8981C77.584 66.8981 78.5051 66.6613 79.2881 66.1875C80.071 65.7073 80.6763 65.046 81.104 64.2039C81.5382 63.3551 81.7553 62.3748 81.7553 61.2629C81.7553 60.1641 81.5415 59.1937 81.1138 58.3515C80.6862 57.5028 80.0809 56.8415 79.2979 56.3678C78.515 55.8875 77.5906 55.6474 76.5247 55.6474C75.4786 55.6474 74.564 55.8842 73.7811 56.3579C72.9982 56.8317 72.3896 57.4896 71.9553 58.3318C71.5211 59.1739 71.304 60.151 71.304 61.2629C71.304 62.3616 71.5178 63.3354 71.9454 64.1841C72.3731 65.0329 72.9751 65.6974 73.7515 66.1777C74.5344 66.658 75.4588 66.8981 76.5247 66.8981ZM76.5247 64.9539C75.5312 64.9539 74.7779 64.6217 74.2647 63.9571C73.7515 63.286 73.4949 62.388 73.4949 61.2629C73.4949 60.1773 73.7416 59.2956 74.2351 58.618C74.7285 57.9337 75.4917 57.5916 76.5247 57.5916C77.5314 57.5916 78.288 57.9238 78.7946 58.5884C79.3078 59.2529 79.5644 60.1444 79.5644 61.2629C79.5644 62.3551 79.3111 63.2433 78.8045 63.9275C78.3044 64.6118 77.5445 64.9539 76.5247 64.9539ZM88.3355 66.8883C89.1053 66.8883 89.7863 66.7501 90.3784 66.4738C90.9772 66.1974 91.4706 65.8158 91.8588 65.3289V66.6021H93.6944V55.9434H91.6121V61.4899C91.6121 62.332 91.4904 63.0064 91.2469 63.513C91.0035 64.0131 90.6745 64.3749 90.26 64.5986C89.8521 64.8223 89.4014 64.9342 88.9079 64.9342C88.3421 64.9342 87.8816 64.819 87.5263 64.5888C87.171 64.3585 86.8979 64.0558 86.7071 63.6808C86.5163 63.3058 86.3847 62.9011 86.3124 62.4669C86.2466 62.0261 86.2137 61.5984 86.2137 61.1839V55.9434H84.1214V61.8649C84.1214 62.1939 84.151 62.5755 84.2103 63.0097C84.2695 63.4439 84.3813 63.8881 84.5458 64.342C84.7103 64.796 84.9471 65.2171 85.2564 65.6053C85.5722 65.9869 85.9801 66.2961 86.4801 66.533C86.9802 66.7698 87.5986 66.8883 88.3355 66.8883ZM96.8572 66.6021H98.9396V61.2234C98.9396 60.5984 99.0382 60.0194 99.2356 59.4864C99.433 58.9535 99.7817 58.5258 100.282 58.2035C100.637 57.9732 101.029 57.8383 101.456 57.7988C101.884 57.7593 102.269 57.7857 102.611 57.8778V55.9434C102.131 55.8513 101.621 55.8546 101.081 55.9533C100.548 56.052 100.081 56.2494 99.6797 56.5455C99.285 56.8086 98.956 57.1738 98.6928 57.6409V55.9434H96.8572V66.6021ZM113.791 66.8981C114.936 66.8981 115.909 66.6218 116.712 66.0691C117.515 65.5165 118.09 64.7171 118.439 63.6709L116.347 63.1775C116.13 63.7499 115.814 64.1907 115.399 64.4999C114.992 64.8026 114.455 64.9539 113.791 64.9539C112.817 64.9539 112.08 64.6151 111.58 63.9374C111.087 63.2597 110.837 62.3715 110.83 61.2727C110.837 60.2069 111.077 59.3285 111.551 58.6377C112.031 57.9403 112.778 57.5916 113.791 57.5916C114.39 57.5916 114.919 57.7593 115.38 58.0949C115.847 58.4239 116.182 58.8877 116.386 59.4864L118.439 58.8943C118.176 57.8942 117.63 57.1047 116.801 56.5257C115.978 55.9401 114.985 55.6474 113.82 55.6474C112.748 55.6474 111.824 55.8875 111.047 56.3678C110.277 56.8481 109.685 57.5126 109.271 58.3614C108.856 59.2035 108.646 60.174 108.639 61.2727C108.646 62.3518 108.85 63.3156 109.251 64.1644C109.659 65.0131 110.245 65.6809 111.008 66.1678C111.778 66.6547 112.705 66.8981 113.791 66.8981ZM125.184 66.8981C126.243 66.8981 127.164 66.6613 127.947 66.1875C128.73 65.7073 129.336 65.046 129.763 64.2039C130.197 63.3551 130.415 62.3748 130.415 61.2629C130.415 60.1641 130.201 59.1937 129.773 58.3515C129.345 57.5028 128.74 56.8415 127.957 56.3678C127.174 55.8875 126.25 55.6474 125.184 55.6474C124.138 55.6474 123.223 55.8842 122.44 56.3579C121.657 56.8317 121.049 57.4896 120.615 58.3318C120.18 59.1739 119.963 60.151 119.963 61.2629C119.963 62.3616 120.177 63.3354 120.605 64.1841C121.032 65.0329 121.634 65.6974 122.411 66.1777C123.194 66.658 124.118 66.8981 125.184 66.8981ZM125.184 64.9539C124.19 64.9539 123.437 64.6217 122.924 63.9571C122.411 63.286 122.154 62.388 122.154 61.2629C122.154 60.1773 122.401 59.2956 122.894 58.618C123.388 57.9337 124.151 57.5916 125.184 57.5916C126.191 57.5916 126.947 57.9238 127.454 58.5884C127.967 59.2529 128.224 60.1444 128.224 61.2629C128.224 62.3551 127.97 63.2433 127.464 63.9275C126.964 64.6118 126.204 64.9539 125.184 64.9539ZM133.175 66.6021H135.238V52.0945H133.175V66.6021ZM143.225 66.8981C144.284 66.8981 145.205 66.6613 145.988 66.1875C146.771 65.7073 147.377 65.046 147.804 64.2039C148.239 63.3551 148.456 62.3748 148.456 61.2629C148.456 60.1641 148.242 59.1937 147.814 58.3515C147.387 57.5028 146.781 56.8415 145.998 56.3678C145.215 55.8875 144.291 55.6474 143.225 55.6474C142.179 55.6474 141.264 55.8842 140.481 56.3579C139.699 56.8317 139.09 57.4896 138.656 58.3318C138.221 59.1739 138.004 60.151 138.004 61.2629C138.004 62.3616 138.218 63.3354 138.646 64.1841C139.073 65.0329 139.675 65.6974 140.452 66.1777C141.235 66.658 142.159 66.8981 143.225 66.8981ZM143.225 64.9539C142.232 64.9539 141.478 64.6217 140.965 63.9571C140.452 63.286 140.195 62.388 140.195 61.2629C140.195 60.1773 140.442 59.2956 140.935 58.618C141.429 57.9337 142.192 57.5916 143.225 57.5916C144.232 57.5916 144.988 57.9238 145.495 58.5884C146.008 59.2529 146.265 60.1444 146.265 61.2629C146.265 62.3551 146.011 63.2433 145.505 63.9275C145.005 64.6118 144.245 64.9539 143.225 64.9539ZM155.036 66.8883C155.806 66.8883 156.487 66.7501 157.079 66.4738C157.678 66.1974 158.171 65.8158 158.559 65.3289V66.6021H160.395V55.9434H158.312V61.4899C158.312 62.332 158.191 63.0064 157.947 63.513C157.704 64.0131 157.375 64.3749 156.96 64.5986C156.552 64.8223 156.102 64.9342 155.608 64.9342C155.042 64.9342 154.582 64.819 154.227 64.5888C153.871 64.3585 153.598 64.0558 153.408 63.6808C153.217 63.3058 153.085 62.9011 153.013 62.4669C152.947 62.0261 152.914 61.5984 152.914 61.1839V55.9434H150.822V61.8649C150.822 62.1939 150.851 62.5755 150.911 63.0097C150.97 63.4439 151.082 63.8881 151.246 64.342C151.411 64.796 151.648 65.2171 151.957 65.6053C152.273 65.9869 152.68 66.2961 153.181 66.533C153.681 66.7698 154.299 66.8883 155.036 66.8883ZM163.558 66.6021H165.64V61.2234C165.64 60.5984 165.739 60.0194 165.936 59.4864C166.133 58.9535 166.482 58.5258 166.982 58.2035C167.337 57.9732 167.729 57.8383 168.157 57.7988C168.584 57.7593 168.969 57.7857 169.311 57.8778V55.9434C168.831 55.8513 168.321 55.8546 167.782 55.9533C167.249 56.052 166.781 56.2494 166.38 56.5455C165.985 56.8086 165.656 57.1738 165.393 57.6409V55.9434H163.558V66.6021ZM180.166 66.8981C180.837 66.8981 181.435 66.7863 181.962 66.5626C182.495 66.3389 182.955 66.0264 183.343 65.625V66.6021H185.179V52.3906H183.107V56.6737C182.738 56.3448 182.31 56.0915 181.824 55.9138C181.337 55.7362 180.797 55.6474 180.205 55.6474C179.205 55.6474 178.34 55.8941 177.609 56.3875C176.886 56.8744 176.326 57.5422 175.932 58.391C175.537 59.2331 175.34 60.1904 175.34 61.2629C175.34 62.3287 175.534 63.286 175.922 64.1348C176.317 64.9835 176.876 65.6579 177.6 66.1579C178.323 66.6514 179.179 66.8981 180.166 66.8981ZM180.452 65.0329C179.794 65.0329 179.248 64.8651 178.813 64.5295C178.379 64.194 178.057 63.7433 177.846 63.1775C177.636 62.6051 177.53 61.9669 177.53 61.2629C177.53 60.5655 177.636 59.9338 177.846 59.368C178.063 58.8022 178.392 58.3515 178.833 58.0159C179.274 57.6804 179.837 57.5126 180.521 57.5126C181.495 57.5126 182.208 57.8613 182.662 58.5587C183.116 59.2562 183.343 60.1575 183.343 61.2629C183.343 62.3682 183.116 63.2729 182.662 63.9769C182.208 64.6809 181.472 65.0329 180.452 65.0329ZM191.345 66.8981C193.043 66.8981 194.322 66.283 195.184 65.0526V66.6021H197.01V60.0391C197.01 59.5917 196.99 59.1739 196.951 58.7857C196.911 58.3976 196.806 58.0291 196.635 57.6804C196.306 56.9764 195.786 56.4632 195.076 56.1408C194.372 55.8118 193.543 55.6474 192.589 55.6474C191.358 55.6474 190.371 55.9171 189.628 56.4566C188.885 56.9961 188.384 57.7232 188.128 58.6377L190.052 59.2298C190.237 58.6377 190.562 58.21 191.029 57.9469C191.497 57.6837 192.01 57.5521 192.569 57.5521C193.398 57.5521 193.997 57.7297 194.365 58.085C194.74 58.4337 194.944 58.9765 194.977 59.7134C194.109 59.8319 193.26 59.9569 192.431 60.0885C191.602 60.2135 190.878 60.3648 190.26 60.5424C189.437 60.8056 188.812 61.1971 188.384 61.7169C187.957 62.2366 187.743 62.8979 187.743 63.7005C187.743 64.2795 187.878 64.8125 188.148 65.2993C188.424 65.7796 188.829 66.1678 189.362 66.4639C189.901 66.7534 190.562 66.8981 191.345 66.8981ZM191.71 65.2105C191.052 65.2105 190.566 65.0592 190.25 64.7565C189.941 64.4539 189.786 64.0953 189.786 63.6808C189.786 63.2597 189.924 62.9275 190.2 62.684C190.483 62.4406 190.835 62.2465 191.256 62.1017C191.704 61.9702 192.23 61.855 192.835 61.7563C193.447 61.6576 194.155 61.5491 194.957 61.4306C194.951 61.6807 194.934 61.9603 194.908 62.2695C194.882 62.5788 194.826 62.8551 194.74 63.0985C194.661 63.4472 194.493 63.7828 194.237 64.1052C193.987 64.4276 193.648 64.694 193.22 64.9046C192.799 65.1085 192.296 65.2105 191.71 65.2105ZM204.043 66.8883C205.392 66.8883 206.448 66.5889 207.211 65.9902C207.981 65.3914 208.366 64.5657 208.366 63.513C208.366 62.9604 208.251 62.4932 208.021 62.1116C207.797 61.73 207.422 61.401 206.896 61.1247C206.369 60.8418 205.659 60.5852 204.764 60.3549C203.928 60.1444 203.297 59.9634 202.869 59.8121C202.448 59.6542 202.162 59.4963 202.01 59.3384C201.859 59.1739 201.783 58.9732 201.783 58.7364C201.783 58.3285 201.978 58.0094 202.366 57.7791C202.754 57.5422 203.261 57.437 203.886 57.4633C204.537 57.4896 205.067 57.6541 205.474 57.9567C205.882 58.2528 206.123 58.6541 206.195 59.1608L208.307 58.7759C208.188 57.8284 207.725 57.0718 206.915 56.506C206.106 55.9336 205.09 55.6474 203.866 55.6474C202.616 55.6474 201.612 55.9401 200.856 56.5257C200.099 57.1047 199.721 57.8778 199.721 58.8449C199.721 59.3647 199.833 59.8088 200.056 60.1773C200.287 60.5391 200.668 60.855 201.201 61.1247C201.741 61.3945 202.468 61.6511 203.382 61.8945C204.218 62.1182 204.84 62.3057 205.248 62.457C205.655 62.6084 205.922 62.7696 206.047 62.9406C206.178 63.1051 206.244 63.3222 206.244 63.592C206.244 64.0525 206.06 64.4144 205.692 64.6776C205.33 64.9408 204.826 65.0723 204.182 65.0723C203.471 65.0723 202.876 64.9144 202.395 64.5986C201.922 64.2828 201.619 63.8453 201.487 63.286L199.375 63.6117C199.56 64.6513 200.06 65.4572 200.876 66.0296C201.691 66.6021 202.747 66.8883 204.043 66.8883ZM210.935 66.6021H213.027V61.0556C213.027 60.2135 213.149 59.5424 213.392 59.0423C213.642 58.5357 213.971 58.1706 214.379 57.9469C214.787 57.7232 215.238 57.6113 215.731 57.6113C216.297 57.6113 216.757 57.7265 217.113 57.9567C217.468 58.187 217.741 58.4897 217.932 58.8647C218.123 59.2397 218.251 59.6476 218.317 60.0885C218.389 60.5227 218.425 60.9471 218.425 61.3616V66.6021H220.518V60.6806C220.518 60.3516 220.488 59.97 220.429 59.5358C220.37 59.1015 220.258 58.6574 220.093 58.2035C219.929 57.7495 219.689 57.3317 219.373 56.9501C219.064 56.5619 218.659 56.2494 218.159 56.0125C217.659 55.7757 217.04 55.6572 216.304 55.6572C215.534 55.6572 214.849 55.7954 214.251 56.0717C213.659 56.3481 213.168 56.7297 212.78 57.2165V52.3906H210.935V66.6021ZM223.473 66.6021H225.309V65.625C225.697 66.0264 226.154 66.3389 226.681 66.5626C227.213 66.7863 227.815 66.8981 228.487 66.8981C229.48 66.8981 230.335 66.6514 231.053 66.1579C231.776 65.6579 232.332 64.9835 232.72 64.1348C233.115 63.286 233.313 62.3287 233.313 61.2629C233.313 60.1904 233.115 59.2331 232.72 58.391C232.326 57.5422 231.763 56.8744 231.033 56.3875C230.309 55.8941 229.447 55.6474 228.447 55.6474C227.855 55.6474 227.315 55.7362 226.829 55.9138C226.342 56.0915 225.914 56.3448 225.546 56.6737V52.3906H223.473V66.6021ZM228.2 65.0329C227.187 65.0329 226.45 64.6809 225.99 63.9769C225.536 63.2729 225.309 62.3682 225.309 61.2629C225.309 60.1575 225.536 59.2562 225.99 58.5587C226.444 57.8613 227.158 57.5126 228.131 57.5126C228.816 57.5126 229.378 57.6804 229.819 58.0159C230.26 58.3515 230.585 58.8022 230.796 59.368C231.013 59.9338 231.122 60.5655 231.122 61.2629C231.122 61.9669 231.016 62.6051 230.806 63.1775C230.595 63.7433 230.273 64.194 229.839 64.5295C229.411 64.8651 228.865 65.0329 228.2 65.0329ZM240.515 66.8981C241.574 66.8981 242.495 66.6613 243.278 66.1875C244.061 65.7073 244.667 65.046 245.094 64.2039C245.529 63.3551 245.746 62.3748 245.746 61.2629C245.746 60.1641 245.532 59.1937 245.104 58.3515C244.676 57.5028 244.071 56.8415 243.288 56.3678C242.505 55.8875 241.581 55.6474 240.515 55.6474C239.469 55.6474 238.554 55.8842 237.771 56.3579C236.988 56.8317 236.38 57.4896 235.946 58.3318C235.511 59.1739 235.294 60.151 235.294 61.2629C235.294 62.3616 235.508 63.3354 235.936 64.1841C236.363 65.0329 236.965 65.6974 237.742 66.1777C238.525 66.658 239.449 66.8981 240.515 66.8981ZM240.515 64.9539C239.522 64.9539 238.768 64.6217 238.255 63.9571C237.742 63.286 237.485 62.388 237.485 61.2629C237.485 60.1773 237.732 59.2956 238.225 58.618C238.719 57.9337 239.482 57.5916 240.515 57.5916C241.522 57.5916 242.278 57.9238 242.785 58.5884C243.298 59.2529 243.555 60.1444 243.555 61.2629C243.555 62.3551 243.301 63.2433 242.795 63.9275C242.295 64.6118 241.535 64.9539 240.515 64.9539ZM251.319 66.8981C253.017 66.8981 254.296 66.283 255.158 65.0526V66.6021H256.984V60.0391C256.984 59.5917 256.964 59.1739 256.925 58.7857C256.885 58.3976 256.78 58.0291 256.609 57.6804C256.28 56.9764 255.76 56.4632 255.05 56.1408C254.346 55.8118 253.517 55.6474 252.563 55.6474C251.332 55.6474 250.345 55.9171 249.602 56.4566C248.858 56.9961 248.358 57.7232 248.102 58.6377L250.026 59.2298C250.211 58.6377 250.536 58.21 251.003 57.9469C251.47 57.6837 251.984 57.5521 252.543 57.5521C253.372 57.5521 253.971 57.7297 254.339 58.085C254.714 58.4337 254.918 58.9765 254.951 59.7134C254.083 59.8319 253.234 59.9569 252.405 60.0885C251.576 60.2135 250.852 60.3648 250.234 60.5424C249.411 60.8056 248.786 61.1971 248.358 61.7169C247.931 62.2366 247.717 62.8979 247.717 63.7005C247.717 64.2795 247.852 64.8125 248.122 65.2993C248.398 65.7796 248.803 66.1678 249.335 66.4639C249.875 66.7534 250.536 66.8981 251.319 66.8981ZM251.684 65.2105C251.026 65.2105 250.54 65.0592 250.224 64.7565C249.914 64.4539 249.76 64.0953 249.76 63.6808C249.76 63.2597 249.898 62.9275 250.174 62.684C250.457 62.4406 250.809 62.2465 251.23 62.1017C251.678 61.9702 252.204 61.855 252.809 61.7563C253.421 61.6576 254.129 61.5491 254.931 61.4306C254.925 61.6807 254.908 61.9603 254.882 62.2695C254.856 62.5788 254.8 62.8551 254.714 63.0985C254.635 63.4472 254.467 63.7828 254.211 64.1052C253.961 64.4276 253.622 64.694 253.194 64.9046C252.773 65.1085 252.27 65.2105 251.684 65.2105ZM259.942 66.6021H262.024V61.2234C262.024 60.5984 262.123 60.0194 262.32 59.4864C262.517 58.9535 262.866 58.5258 263.366 58.2035C263.721 57.9732 264.113 57.8383 264.541 57.7988C264.968 57.7593 265.353 57.7857 265.695 57.8778V55.9434C265.215 55.8513 264.705 55.8546 264.165 55.9533C263.633 56.052 263.165 56.2494 262.764 56.5455C262.369 56.8086 262.04 57.1738 261.777 57.6409V55.9434H259.942V66.6021ZM272.01 66.8981C272.682 66.8981 273.28 66.7863 273.807 66.5626C274.34 66.3389 274.8 66.0264 275.188 65.625V66.6021H277.024V52.3906H274.951V56.6737C274.583 56.3448 274.155 56.0915 273.668 55.9138C273.182 55.7362 272.642 55.6474 272.05 55.6474C271.05 55.6474 270.185 55.8941 269.454 56.3875C268.731 56.8744 268.171 57.5422 267.777 58.391C267.382 59.2331 267.185 60.1904 267.185 61.2629C267.185 62.3287 267.379 63.286 267.767 64.1348C268.162 64.9835 268.721 65.6579 269.445 66.1579C270.168 66.6514 271.024 66.8981 272.01 66.8981ZM272.297 65.0329C271.639 65.0329 271.093 64.8651 270.658 64.5295C270.224 64.194 269.902 63.7433 269.691 63.1775C269.481 62.6051 269.375 61.9669 269.375 61.2629C269.375 60.5655 269.481 59.9338 269.691 59.368C269.908 58.8022 270.237 58.3515 270.678 58.0159C271.119 57.6804 271.682 57.5126 272.366 57.5126C273.34 57.5126 274.053 57.8613 274.507 58.5587C274.961 59.2562 275.188 60.1575 275.188 61.2629C275.188 62.3682 274.961 63.2729 274.507 63.9769C274.053 64.6809 273.316 65.0329 272.297 65.0329Z" fill="black"/>
<g clip-path="url(#clip2)">
<rect width="290" height="234" transform="translate(320 122)" fill="white"/>
<rect x="320" y="122" width="290" height="58.5" fill="#8652F6"/>
<rect x="320" y="180.5" width="290" height="58.5" fill="white"/>
<rect x="320" y="239" width="290" height="58.5" fill="#92FBC7"/>
<rect x="320" y="297.5" width="290" height="58.5" fill="#11111E"/>
</g>
<g clip-path="url(#clip3)">
<rect width="290" height="234" transform="translate(640 122)" fill="white"/>
<rect x="640" y="122" width="290" height="46.8001" fill="#36C5F0"/>
<rect x="640" y="168.8" width="290" height="46.8001" fill="#28BA7D"/>
<rect x="640" y="215.6" width="290" height="46.8001" fill="#E01E5A"/>
<rect x="640" y="262.4" width="290" height="46.8001" fill="#ECB22E"/>
<rect x="640" y="309.2" width="290" height="46.8001" fill="#4A154B"/>
</g>
<rect width="290" height="234" transform="translate(0 122)" fill="white"/>
<rect y="122" width="290" height="58.5" fill="#005CA8"/>
<rect y="180.5" width="290" height="58.5" fill="#FFE000"/>
<rect y="239" width="290" height="58.5" fill="#FFF0A4"/>
<rect y="297.5" width="290" height="58.5" fill="#F5F5F5"/>
<g clip-path="url(#clip4)">
<rect width="290" height="195" transform="translate(930 581) rotate(-180)" fill="white"/>
<rect x="930" y="581" width="290" height="48.75" transform="rotate(-180 930 581)" fill="#EFEFEF"/>
<rect x="930" y="532.25" width="290" height="48.75" transform="rotate(-180 930 532.25)" fill="#EA39BA"/>
<rect x="930" y="483.5" width="290" height="48.75" transform="rotate(-180 930 483.5)" fill="#292935"/>
<rect x="930" y="434.75" width="290" height="48.75" transform="rotate(-180 930 434.75)" fill="#8046F6"/>
</g>
<g clip-path="url(#clip5)">
<rect width="290" height="195" transform="translate(320 386)" fill="white"/>
<rect x="320" y="386" width="289.999" height="48.7499" fill="#5086EC"/>
<rect x="320" y="434.75" width="289.999" height="48.7499" fill="#58A55C"/>
<rect x="320" y="483.5" width="289.999" height="48.7499" fill="#F2BD42"/>
<rect x="320" y="532.25" width="289.999" height="48.7499" fill="#D95040"/>
</g>
<g clip-path="url(#clip6)">
<rect width="290" height="195" transform="translate(0 386)" fill="white"/>
<rect y="386" width="290" height="32.5001" fill="#00CCBC"/>
<rect y="418.5" width="290" height="32.5001" fill="#2D6C68"/>
<rect y="451" width="290" height="32.5001" fill="#C6E877"/>
<rect y="483.5" width="290" height="32.5001" fill="#440063"/>
<rect y="548.5" width="290" height="32.5001" fill="#FC3345"/>
<rect y="516" width="290" height="32.5001" fill="#FF8100"/>
</g>
</g>
</g>
<defs>
<clipPath id="clip0">
<rect width="821" height="582" fill="white"/>
</clipPath>
<clipPath id="clip1">
<rect width="922" height="717" fill="white"/>
</clipPath>
<clipPath id="clip2">
<rect width="290" height="234" fill="white" transform="translate(320 122)"/>
</clipPath>
<clipPath id="clip3">
<rect width="290" height="234" fill="white" transform="translate(640 122)"/>
</clipPath>
<clipPath id="clip4">
<rect width="290" height="195" fill="white" transform="translate(930 581) rotate(-180)"/>
</clipPath>
<clipPath id="clip5">
<rect width="290" height="195" fill="white" transform="translate(320 386)"/>
</clipPath>
<clipPath id="clip6">
<rect width="290" height="195" fill="white" transform="translate(0 386)"/>
</clipPath>
</defs>
</svg>
