<svg width="821" height="582" viewBox="0 0 821 582" fill="none" xmlns="http://www.w3.org/2000/svg">
<g clip-path="url(#clip0)">
<rect width="821" height="582" fill="#F5F5F5"/>
<rect width="922" height="717" fill="white"/>
<rect width="198.16" height="198.16" transform="translate(297.52 518.565)" fill="#FFF0A4"/>
<rect width="198.16" height="198.16" transform="translate(693.844 518.565)" fill="#FFF0A4"/>
<rect width="198.16" height="198.16" transform="translate(495.68 518.565)" fill="#FFF0A4"/>
<rect width="198.16" height="198.16" transform="translate(297.52 320.405)" fill="#FFE000"/>
<path fill-rule="evenodd" clip-rule="evenodd" d="M396.622 435.247C389.611 435.24 383.145 431.733 379.688 426.062C378.93 424.821 379.397 423.243 380.732 422.539C382.067 421.834 383.763 422.269 384.521 423.51C386.984 427.567 391.606 430.076 396.616 430.076C401.627 430.076 406.248 427.567 408.712 423.51C409.202 422.707 410.116 422.208 411.108 422.202C412.101 422.195 413.023 422.682 413.525 423.478C414.028 424.274 414.036 425.259 413.545 426.062C410.085 431.725 403.627 435.23 396.622 435.247ZM412.996 404.623C410.235 404.623 407.996 406.704 407.996 409.272C407.996 411.84 410.235 413.922 412.996 413.922C415.758 413.922 417.996 411.84 417.996 409.272C417.996 408.039 417.47 406.856 416.532 405.984C415.594 405.112 414.322 404.623 412.996 404.623ZM380.203 404.623C377.442 404.623 375.203 406.704 375.203 409.272C375.203 411.84 377.442 413.922 380.203 413.922C382.965 413.922 385.204 411.84 385.204 409.272C385.207 408.038 384.681 406.854 383.742 405.981C382.804 405.109 381.53 404.62 380.203 404.623Z" fill="#005CA8"/>
<rect width="198.16" height="198.16" transform="translate(693.844 320.405)" fill="#FFE000"/>
<path fill-rule="evenodd" clip-rule="evenodd" d="M814.326 409.438C814.326 412.094 812.095 414.248 809.34 414.253C806.584 414.259 804.343 412.115 804.331 409.46C804.319 406.805 806.54 404.641 809.295 404.623C810.627 404.612 811.909 405.114 812.854 406.019C813.799 406.924 814.329 408.155 814.326 409.438ZM776.521 404.623C773.761 404.623 771.523 406.779 771.523 409.438C771.523 412.098 773.761 414.254 776.521 414.254C779.281 414.254 781.518 412.098 781.518 409.438C781.521 408.16 780.996 406.934 780.058 406.03C779.12 405.127 777.847 404.62 776.521 404.623ZM808.734 434.83C810.067 434.101 810.538 432.47 809.789 431.182C806.338 425.305 799.872 421.671 792.864 421.671C785.856 421.671 779.39 425.305 775.939 431.182C775.412 432.015 775.398 433.06 775.903 433.906C776.408 434.752 777.352 435.266 778.365 435.247C779.378 435.228 780.3 434.679 780.77 433.814C783.235 429.613 787.855 427.016 792.864 427.016C797.872 427.016 802.493 429.613 804.958 433.814C805.71 435.097 807.399 435.552 808.734 434.83Z" fill="#FFF0A4"/>
<rect width="198.16" height="198.16" transform="translate(495.68 320.405)" fill="#FFE000"/>
<path fill-rule="evenodd" clip-rule="evenodd" d="M616.162 409.438C616.162 412.094 613.931 414.248 611.176 414.253C608.42 414.259 606.179 412.115 606.167 409.46C606.155 406.805 608.376 404.641 611.131 404.623C612.463 404.612 613.745 405.114 614.69 406.019C615.635 406.924 616.165 408.155 616.162 409.438ZM578.357 404.623C575.597 404.623 573.359 406.779 573.359 409.438C573.359 412.098 575.597 414.254 578.357 414.254C581.117 414.254 583.354 412.098 583.354 409.438C583.357 408.16 582.832 406.934 581.894 406.03C580.956 405.127 579.683 404.62 578.357 404.623ZM610.569 434.83C611.903 434.101 612.374 432.47 611.624 431.182C608.174 425.305 601.708 421.671 594.7 421.671C587.692 421.671 581.226 425.305 577.775 431.182C577.248 432.015 577.234 433.06 577.739 433.906C578.244 434.752 579.188 435.266 580.201 435.247C581.214 435.228 582.136 434.679 582.606 433.814C585.071 429.613 589.691 427.016 594.7 427.016C599.708 427.016 604.329 429.613 606.794 433.814C607.546 435.097 609.235 435.552 610.569 434.83Z" fill="white"/>
<rect width="198.16" height="198.16" transform="translate(297.516 122.244)" fill="#005CA8"/>
<path fill-rule="evenodd" clip-rule="evenodd" d="M396.618 237.087C389.607 237.08 383.141 233.573 379.684 227.902C378.926 226.661 379.393 225.083 380.728 224.379C382.063 223.674 383.759 224.109 384.517 225.35C386.981 229.407 391.602 231.915 396.613 231.915C401.623 231.915 406.245 229.407 408.708 225.35C409.198 224.547 410.112 224.048 411.105 224.042C412.097 224.035 413.019 224.521 413.521 225.318C414.024 226.114 414.032 227.099 413.541 227.902C410.081 233.565 403.623 237.07 396.618 237.087ZM412.992 206.462C410.231 206.462 407.992 208.544 407.992 211.112C407.992 213.68 410.231 215.761 412.992 215.761C415.754 215.761 417.993 213.68 417.993 211.112C417.993 209.879 417.466 208.696 416.528 207.824C415.59 206.952 414.318 206.462 412.992 206.462ZM380.2 206.462C377.438 206.462 375.199 208.544 375.199 211.112C375.199 213.68 377.438 215.761 380.2 215.761C382.961 215.761 385.2 213.68 385.2 211.112C385.203 209.878 384.677 208.694 383.739 207.821C382.8 206.949 381.527 206.46 380.2 206.462Z" fill="#FFE000"/>
<rect width="198.16" height="198.16" transform="translate(693.836 122.244)" fill="#005CA8"/>
<path fill-rule="evenodd" clip-rule="evenodd" d="M792.938 237.087C785.928 237.08 779.461 233.573 776.004 227.902C775.246 226.661 775.714 225.083 777.049 224.379C778.383 223.674 780.08 224.109 780.838 225.35C783.301 229.407 787.923 231.915 792.933 231.915C797.943 231.915 802.565 229.407 805.028 225.35C805.518 224.547 806.432 224.048 807.425 224.042C808.418 224.035 809.339 224.521 809.842 225.318C810.344 226.114 810.352 227.099 809.862 227.902C806.401 233.565 799.943 237.07 792.938 237.087ZM809.313 206.462C806.551 206.462 804.312 208.544 804.312 211.112C804.312 213.68 806.551 215.761 809.313 215.761C812.074 215.761 814.313 213.68 814.313 211.112C814.313 209.879 813.786 208.696 812.848 207.824C811.911 206.952 810.639 206.462 809.313 206.462ZM776.52 206.462C773.758 206.462 771.52 208.544 771.52 211.112C771.52 213.68 773.758 215.761 776.52 215.761C779.281 215.761 781.52 213.68 781.52 211.112C781.523 209.878 780.997 208.694 780.059 207.821C779.12 206.949 777.847 206.46 776.52 206.462Z" fill="#FFF0A4"/>
<rect width="198.16" height="198.16" transform="translate(495.676 122.244)" fill="#005CA8"/>
<path fill-rule="evenodd" clip-rule="evenodd" d="M594.778 237.087C587.768 237.08 581.301 233.573 577.844 227.902C577.086 226.661 577.554 225.083 578.888 224.379C580.223 223.674 581.92 224.109 582.678 225.35C585.141 229.407 589.763 231.915 594.773 231.915C599.783 231.915 604.405 229.407 606.868 225.35C607.358 224.547 608.272 224.048 609.265 224.042C610.258 224.035 611.179 224.521 611.682 225.318C612.184 226.114 612.192 227.099 611.701 227.902C608.241 233.565 601.783 237.07 594.778 237.087ZM611.152 206.462C608.391 206.462 606.152 208.544 606.152 211.112C606.152 213.68 608.391 215.761 611.152 215.761C613.914 215.761 616.153 213.68 616.153 211.112C616.153 209.879 615.626 208.696 614.688 207.824C613.75 206.952 612.479 206.462 611.152 206.462ZM578.36 206.462C575.598 206.462 573.359 208.544 573.359 211.112C573.359 213.68 575.598 215.761 578.36 215.761C581.121 215.761 583.36 213.68 583.36 211.112C583.363 209.878 582.837 208.694 581.899 207.821C580.96 206.949 579.687 206.46 578.36 206.462Z" fill="white"/>
<rect width="268" height="198" transform="translate(30 518.244)" fill="#FFF0A4"/>
<rect width="268" height="198" transform="translate(30 320.244)" fill="#FFE000"/>
<path d="M74.106 419.988H76.1329V412.802H82.3049V410.775H76.1329V405.617H83.6714V403.59H74.106V419.988ZM86.1713 419.988H88.1982V412.802H94.3702V410.775H88.1982V405.617H95.7367V403.59H86.1713V419.988ZM98.2366 419.988H108.599V418.063H100.264V412.575H107.233V410.65H100.264V405.514H108.599V403.59H98.2366V419.988ZM117.326 420.329C118.389 420.329 119.338 420.09 120.173 419.612C121.008 419.134 121.665 418.477 122.143 417.642C122.621 416.807 122.861 415.858 122.861 414.795V408.783C122.861 407.72 122.621 406.771 122.143 405.936C121.665 405.101 121.008 404.444 120.173 403.966C119.338 403.487 118.389 403.248 117.326 403.248C116.264 403.248 115.315 403.487 114.479 403.966C113.644 404.444 112.988 405.101 112.509 405.936C112.031 406.771 111.792 407.72 111.792 408.783V414.795C111.792 415.858 112.031 416.807 112.509 417.642C112.988 418.477 113.644 419.134 114.479 419.612C115.315 420.09 116.264 420.329 117.326 420.329ZM117.326 418.382C116.689 418.382 116.104 418.227 115.573 417.915C115.049 417.604 114.631 417.186 114.32 416.663C114.009 416.131 113.853 415.547 113.853 414.909V408.657C113.853 408.012 114.009 407.427 114.32 406.904C114.631 406.38 115.049 405.962 115.573 405.651C116.104 405.34 116.689 405.184 117.326 405.184C117.972 405.184 118.556 405.34 119.08 405.651C119.604 405.962 120.021 406.38 120.333 406.904C120.644 407.427 120.799 408.012 120.799 408.657V414.909C120.799 415.547 120.644 416.131 120.333 416.663C120.021 417.186 119.604 417.604 119.08 417.915C118.556 418.227 117.972 418.382 117.326 418.382ZM132.038 420.329C133.101 420.329 134.05 420.09 134.885 419.612C135.72 419.134 136.377 418.477 136.855 417.642C137.333 416.807 137.573 415.858 137.573 414.795V408.783C137.573 407.72 137.333 406.771 136.855 405.936C136.377 405.101 135.72 404.444 134.885 403.966C134.05 403.487 133.101 403.248 132.038 403.248C130.975 403.248 130.027 403.487 129.191 403.966C128.356 404.444 127.7 405.101 127.221 405.936C126.743 406.771 126.504 407.72 126.504 408.783V414.795C126.504 415.858 126.743 416.807 127.221 417.642C127.7 418.477 128.356 419.134 129.191 419.612C130.027 420.09 130.975 420.329 132.038 420.329ZM132.038 418.382C131.401 418.382 130.816 418.227 130.285 417.915C129.761 417.604 129.343 417.186 129.032 416.663C128.721 416.131 128.565 415.547 128.565 414.909V408.657C128.565 408.012 128.721 407.427 129.032 406.904C129.343 406.38 129.761 405.962 130.285 405.651C130.816 405.34 131.401 405.184 132.038 405.184C132.684 405.184 133.268 405.34 133.792 405.651C134.316 405.962 134.733 406.38 135.045 406.904C135.356 407.427 135.511 408.012 135.511 408.657V414.909C135.511 415.547 135.356 416.131 135.045 416.663C134.733 417.186 134.316 417.604 133.792 417.915C133.268 418.227 132.684 418.382 132.038 418.382ZM146.75 420.329C147.813 420.329 148.762 420.09 149.597 419.612C150.432 419.134 151.089 418.477 151.567 417.642C152.045 416.807 152.285 415.858 152.285 414.795V408.783C152.285 407.72 152.045 406.771 151.567 405.936C151.089 405.101 150.432 404.444 149.597 403.966C148.762 403.487 147.813 403.248 146.75 403.248C145.687 403.248 144.739 403.487 143.903 403.966C143.068 404.444 142.412 405.101 141.933 405.936C141.455 406.771 141.216 407.72 141.216 408.783V414.795C141.216 415.858 141.455 416.807 141.933 417.642C142.412 418.477 143.068 419.134 143.903 419.612C144.739 420.09 145.687 420.329 146.75 420.329ZM146.75 418.382C146.113 418.382 145.528 418.227 144.997 417.915C144.473 417.604 144.055 417.186 143.744 416.663C143.433 416.131 143.277 415.547 143.277 414.909V408.657C143.277 408.012 143.433 407.427 143.744 406.904C144.055 406.38 144.473 405.962 144.997 405.651C145.528 405.34 146.113 405.184 146.75 405.184C147.396 405.184 147.98 405.34 148.504 405.651C149.028 405.962 149.445 406.38 149.757 406.904C150.068 407.427 150.223 408.012 150.223 408.657V414.909C150.223 415.547 150.068 416.131 149.757 416.663C149.445 417.186 149.028 417.604 148.504 417.915C147.98 418.227 147.396 418.382 146.75 418.382Z" fill="black"/>
<path d="M55.1088 420.506H56.0228L57.3407 415.596H61.507L60.2103 420.506H61.1243L62.4422 415.596H67.0762L67.31 414.703H62.6761L63.7601 410.686H68.3941L68.6279 409.793H63.994L65.2268 405.202H64.2916L63.0799 409.793H58.8924L60.1253 405.202H59.19L57.9784 409.793H53.3232L53.0894 410.686H57.7233L56.6605 414.703H52.0053L51.7715 415.596H56.4054L55.1088 420.506ZM57.5745 414.703L58.6586 410.686H62.8249L61.762 414.703H57.5745Z" fill="black"/>
<path d="M76.3541 443.354H77.8181V439.814L80.7521 434.714H79.0661L77.0861 438.158L75.1001 434.714H73.4141L76.3541 439.814V443.354ZM82.79 443.354H88.37V441.998H84.236V439.556H87.65V438.2H84.236V436.07H88.37V434.714H82.79V443.354ZM91.1295 443.354H96.3915V441.998H92.5755V434.714H91.1295V443.354ZM98.728 443.354H103.99V441.998H100.174V434.714H98.728V443.354ZM109.626 443.534C110.49 443.534 111.23 443.346 111.846 442.97C112.466 442.59 112.94 442.062 113.268 441.386C113.6 440.71 113.766 439.926 113.766 439.034C113.766 438.138 113.6 437.354 113.268 436.682C112.94 436.006 112.466 435.48 111.846 435.104C111.23 434.724 110.49 434.534 109.626 434.534C108.766 434.534 108.026 434.724 107.406 435.104C106.79 435.48 106.316 436.006 105.984 436.682C105.656 437.354 105.492 438.138 105.492 439.034C105.492 439.926 105.656 440.71 105.984 441.386C106.316 442.062 106.79 442.59 107.406 442.97C108.026 443.346 108.766 443.534 109.626 443.534ZM109.626 442.172C108.758 442.16 108.106 441.87 107.67 441.302C107.234 440.734 107.018 439.978 107.022 439.034C107.026 438.402 107.124 437.85 107.316 437.378C107.508 436.906 107.796 436.54 108.18 436.28C108.564 436.016 109.046 435.888 109.626 435.896C110.498 435.908 111.15 436.198 111.582 436.766C112.018 437.334 112.236 438.09 112.236 439.034C112.236 439.662 112.138 440.214 111.942 440.69C111.75 441.162 111.46 441.528 111.072 441.788C110.688 442.048 110.206 442.176 109.626 442.172ZM117.621 443.354H119.049L120.813 437.21L122.577 443.354H124.005L126.525 434.714H125.007L123.291 440.954L121.569 434.714L120.051 434.726L118.335 440.954L116.613 434.714H115.095L117.621 443.354Z" fill="black"/>
<g opacity="0.6" clip-path="url(#clip1)">
<path fill-rule="evenodd" clip-rule="evenodd" d="M243.249 416.744V410.91H245.233V412.893H249.083V414.76H245.233V416.744H243.249ZM249.083 420.594H239.399V418.727H249.083V420.594ZM235.432 416.744H237.416V422.577H235.432V420.594H231.582V418.727H235.432V416.744ZM241.266 428.411H239.399V422.577H241.266V424.561H249.083V426.427H241.266V428.411ZM231.582 412.893H241.266V414.76H231.582V412.893ZM231.582 424.561H237.416V426.427H231.582V424.561Z" fill="black"/>
</g>
<rect width="268" height="198" transform="translate(30 122.244)" fill="#005CA8"/>
<path d="M79.6402 222.329C80.7031 222.329 81.652 222.09 82.4871 221.612C83.3222 221.134 83.9788 220.477 84.4571 219.642C84.9354 218.807 85.1745 217.858 85.1745 216.795V210.783C85.1745 209.72 84.9354 208.771 84.4571 207.936C83.9788 207.101 83.3222 206.444 82.4871 205.966C81.652 205.487 80.7031 205.248 79.6402 205.248C78.5774 205.248 77.6285 205.487 76.7934 205.966C75.9583 206.444 75.3016 207.101 74.8234 207.936C74.3451 208.771 74.106 209.72 74.106 210.783V216.795C74.106 217.858 74.3451 218.807 74.8234 219.642C75.3016 220.477 75.9583 221.134 76.7934 221.612C77.6285 222.09 78.5774 222.329 79.6402 222.329ZM79.6402 220.382C79.0025 220.382 78.418 220.227 77.8866 219.915C77.3628 219.604 76.9452 219.186 76.634 218.663C76.3227 218.131 76.1671 217.547 76.1671 216.909V210.657C76.1671 210.012 76.3227 209.427 76.634 208.904C76.9452 208.38 77.3628 207.962 77.8866 207.651C78.418 207.34 79.0025 207.184 79.6402 207.184C80.2855 207.184 80.8701 207.34 81.3939 207.651C81.9177 207.962 82.3353 208.38 82.6465 208.904C82.9578 209.427 83.1134 210.012 83.1134 210.657V216.909C83.1134 217.547 82.9578 218.131 82.6465 218.663C82.3353 219.186 81.9177 219.604 81.3939 219.915C80.8701 220.227 80.2855 220.382 79.6402 220.382ZM94.3522 222.329C95.4151 222.329 96.364 222.09 97.1991 221.612C98.0342 221.134 98.6908 220.477 99.1691 219.642C99.6474 218.807 99.8865 217.858 99.8865 216.795V210.783C99.8865 209.72 99.6474 208.771 99.1691 207.936C98.6908 207.101 98.0342 206.444 97.1991 205.966C96.364 205.487 95.4151 205.248 94.3522 205.248C93.2894 205.248 92.3405 205.487 91.5054 205.966C90.6703 206.444 90.0136 207.101 89.5354 207.936C89.0571 208.771 88.818 209.72 88.818 210.783V216.795C88.818 217.858 89.0571 218.807 89.5354 219.642C90.0136 220.477 90.6703 221.134 91.5054 221.612C92.3405 222.09 93.2894 222.329 94.3522 222.329ZM94.3522 220.382C93.7145 220.382 93.13 220.227 92.5986 219.915C92.0748 219.604 91.6572 219.186 91.346 218.663C91.0347 218.131 90.8791 217.547 90.8791 216.909V210.657C90.8791 210.012 91.0347 209.427 91.346 208.904C91.6572 208.38 92.0748 207.962 92.5986 207.651C93.13 207.34 93.7145 207.184 94.3522 207.184C94.9975 207.184 95.5821 207.34 96.1059 207.651C96.6297 207.962 97.0473 208.38 97.3585 208.904C97.6698 209.427 97.8254 210.012 97.8254 210.657V216.909C97.8254 217.547 97.6698 218.131 97.3585 218.663C97.0473 219.186 96.6297 219.604 96.1059 219.915C95.5821 220.227 94.9975 220.382 94.3522 220.382ZM108.381 222.329C109.398 222.329 110.332 222.083 111.182 221.589C112.04 221.088 112.727 220.424 113.243 219.596C113.76 218.761 114.018 217.839 114.018 216.829C114.018 215.812 113.782 214.897 113.312 214.085C112.841 213.265 112.203 212.62 111.399 212.149C110.594 211.671 109.683 211.432 108.666 211.432C107.512 211.432 106.491 211.785 105.602 212.491L105.899 207.514H112.879V205.59H104.077L103.575 214.165L105.375 214.848C105.671 214.423 106.073 214.058 106.582 213.755C107.098 213.451 107.717 213.299 108.438 213.299C109.076 213.299 109.664 213.455 110.203 213.766C110.742 214.077 111.171 214.502 111.49 215.041C111.816 215.573 111.979 216.169 111.979 216.829C111.979 217.467 111.82 218.055 111.501 218.594C111.19 219.126 110.769 219.555 110.237 219.881C109.706 220.2 109.106 220.359 108.438 220.359C107.679 220.359 106.969 220.124 106.308 219.653C105.656 219.175 105.227 218.534 105.022 217.729L103.074 218.253C103.295 219.05 103.659 219.756 104.168 220.371C104.684 220.986 105.303 221.468 106.024 221.817C106.753 222.159 107.538 222.329 108.381 222.329ZM123.938 222.329C125.836 222.329 127.396 221.847 128.618 220.883C129.848 219.911 130.694 218.613 131.158 216.989L129.096 216.442C128.762 217.657 128.163 218.621 127.297 219.335C126.439 220.041 125.32 220.394 123.938 220.394C122.716 220.394 121.695 220.116 120.875 219.562C120.055 219.008 119.44 218.234 119.03 217.239C118.62 216.245 118.419 215.095 118.426 213.789C118.434 212.476 118.643 211.325 119.053 210.338C119.463 209.344 120.074 208.57 120.886 208.015C121.698 207.461 122.716 207.184 123.938 207.184C125.32 207.184 126.439 207.537 127.297 208.243C128.163 208.949 128.762 209.913 129.096 211.136L131.158 210.589C130.694 208.957 129.848 207.659 128.618 206.695C127.396 205.73 125.836 205.248 123.938 205.248C122.306 205.248 120.917 205.609 119.77 206.33C118.631 207.051 117.766 208.053 117.174 209.336C116.582 210.619 116.286 212.104 116.286 213.789C116.286 215.474 116.582 216.958 117.174 218.241C117.766 219.524 118.631 220.526 119.77 221.248C120.917 221.969 122.306 222.329 123.938 222.329ZM132.527 221.988H134.634L135.92 218.15H142.924L144.222 221.988H146.328L140.84 205.59H138.016L132.527 221.988ZM136.558 216.249L139.405 207.719L142.286 216.249H136.558ZM153.947 222.329C154.994 222.329 155.921 222.121 156.725 221.703C157.538 221.286 158.172 220.701 158.627 219.949C159.09 219.19 159.322 218.31 159.322 217.308C159.322 216.457 159.139 215.675 158.775 214.962C158.411 214.248 157.875 213.664 157.169 213.208C157.746 212.806 158.179 212.305 158.468 211.705C158.756 211.105 158.9 210.449 158.9 209.735C158.9 208.809 158.688 208.012 158.263 207.344C157.838 206.676 157.253 206.159 156.509 205.795C155.765 205.431 154.911 205.248 153.947 205.248C152.983 205.248 152.129 205.431 151.385 205.795C150.641 206.159 150.056 206.676 149.631 207.344C149.206 208.012 148.993 208.809 148.993 209.735C148.993 210.441 149.141 211.098 149.437 211.705C149.733 212.305 150.166 212.802 150.736 213.197C150.014 213.66 149.475 214.248 149.119 214.962C148.769 215.668 148.595 216.45 148.595 217.308C148.595 218.31 148.822 219.186 149.278 219.938C149.733 220.69 150.364 221.278 151.168 221.703C151.973 222.121 152.899 222.329 153.947 222.329ZM153.947 212.263C153.119 212.263 152.444 212.054 151.92 211.637C151.404 211.212 151.146 210.578 151.146 209.735C151.146 208.892 151.404 208.262 151.92 207.845C152.444 207.42 153.119 207.207 153.947 207.207C154.782 207.207 155.458 207.42 155.974 207.845C156.49 208.262 156.748 208.892 156.748 209.735C156.748 210.578 156.49 211.212 155.974 211.637C155.458 212.054 154.782 212.263 153.947 212.263ZM153.947 220.394C152.99 220.394 152.216 220.132 151.624 219.608C151.032 219.076 150.736 218.31 150.736 217.308C150.736 216.298 151.028 215.531 151.612 215.007C152.205 214.476 152.983 214.21 153.947 214.21C154.919 214.21 155.697 214.476 156.281 215.007C156.873 215.531 157.169 216.298 157.169 217.308C157.169 218.31 156.87 219.076 156.27 219.608C155.678 220.132 154.903 220.394 153.947 220.394Z" fill="white"/>
<path d="M55.1088 222.506H56.0228L57.3407 217.596H61.507L60.2103 222.506H61.1243L62.4422 217.596H67.0762L67.31 216.703H62.6761L63.7601 212.686H68.3941L68.6279 211.793H63.994L65.2268 207.201H64.2916L63.0799 211.793H58.8924L60.1253 207.201H59.19L57.9784 211.793H53.3232L53.0894 212.686H57.7233L56.6605 216.703H52.0053L51.7715 217.596H56.4054L55.1088 222.506ZM57.5745 216.703L58.6586 212.686H62.8249L61.762 216.703H57.5745Z" fill="white"/>
<path d="M74.2541 245.354H78.0281C78.8801 245.354 79.5261 245.118 79.9661 244.646C80.4061 244.174 80.6261 243.554 80.6261 242.786C80.6261 242.35 80.5181 241.954 80.3021 241.598C80.0901 241.242 79.7761 240.976 79.3601 240.8C79.6281 240.64 79.8381 240.414 79.9901 240.122C80.1461 239.826 80.2241 239.482 80.2241 239.09C80.2241 238.702 80.1321 238.326 79.9481 237.962C79.7681 237.598 79.4901 237.3 79.1141 237.068C78.7421 236.832 78.2641 236.714 77.6801 236.714H74.2541V245.354ZM75.7181 240.164V238.064H77.6621C78.0061 238.064 78.2741 238.164 78.4661 238.364C78.6581 238.564 78.7541 238.814 78.7541 239.114C78.7541 239.458 78.6481 239.72 78.4361 239.9C78.2281 240.076 77.9701 240.164 77.6621 240.164H75.7181ZM75.7181 243.992V241.514H77.8901C78.2941 241.514 78.6081 241.632 78.8321 241.868C79.0561 242.104 79.1681 242.396 79.1681 242.744C79.1681 243.128 79.0421 243.432 78.7901 243.656C78.5421 243.88 78.2281 243.992 77.8481 243.992H75.7181ZM83.1444 245.354H88.4064V243.998H84.5904V236.714H83.1444V245.354ZM94.1028 245.534C94.7908 245.534 95.3948 245.394 95.9148 245.114C96.4388 244.834 96.8468 244.44 97.1388 243.932C97.4348 243.424 97.5828 242.828 97.5828 242.144V236.714H96.1188V242.108C96.1188 242.536 96.0248 242.904 95.8368 243.212C95.6528 243.52 95.4068 243.758 95.0988 243.926C94.7948 244.09 94.4628 244.172 94.1028 244.172C93.7548 244.172 93.4268 244.09 93.1188 243.926C92.8108 243.762 92.5608 243.526 92.3688 243.218C92.1808 242.91 92.0868 242.54 92.0868 242.108V236.714L90.6228 236.726V242.144C90.6228 242.828 90.7688 243.424 91.0608 243.932C91.3568 244.44 91.7668 244.834 92.2908 245.114C92.8148 245.394 93.4188 245.534 94.1028 245.534ZM100.46 245.354H106.04V243.998H101.906V241.556H105.32V240.2H101.906V238.07H106.04V236.714H100.46V245.354Z" fill="white"/>
<g opacity="0.6" clip-path="url(#clip2)">
<path fill-rule="evenodd" clip-rule="evenodd" d="M243.249 218.743V212.91H245.233V214.893H249.083V216.76H245.233V218.743H243.249ZM249.083 222.594H239.399V220.727H249.083V222.594ZM235.432 218.743H237.416V224.577H235.432V222.594H231.582V220.727H235.432V218.743ZM241.266 230.411H239.399V224.577H241.266V226.56H249.083V228.427H241.266V230.411ZM231.582 214.893H241.266V216.76H231.582V214.893ZM231.582 226.56H237.416V228.427H231.582V226.56Z" fill="white"/>
</g>
<rect width="922" height="122" fill="white"/>
<g clip-path="url(#clip3)">
<path d="M61.3817 66.6021V52.3906H66.9676C67.869 52.3906 68.6256 52.5748 69.2375 52.9432C69.8493 53.3117 70.3099 53.7887 70.6191 54.3743C70.9284 54.9532 71.083 55.5651 71.083 56.2099C71.083 56.9929 70.8889 57.6639 70.5007 58.2232C70.1191 58.7824 69.6026 59.164 68.9513 59.368L68.9315 58.8844C69.8395 59.1081 70.5369 59.5457 71.0238 60.197C71.5106 60.8418 71.7541 61.5951 71.7541 62.457C71.7541 63.2926 71.5863 64.0196 71.2508 64.6381C70.9218 65.2566 70.4382 65.7402 69.8 66.0889C69.1684 66.431 68.4019 66.6021 67.5005 66.6021H61.3817ZM63.4739 64.6381H67.1847C67.6518 64.6381 68.0696 64.5493 68.4381 64.3716C68.8131 64.194 69.1059 63.9407 69.3164 63.6117C69.5335 63.2762 69.6421 62.8781 69.6421 62.4176C69.6421 61.9899 69.5467 61.605 69.3559 61.2629C69.1717 60.9142 68.9019 60.6411 68.5466 60.4437C68.1979 60.2398 67.7867 60.1378 67.313 60.1378H63.4739V64.6381ZM63.4739 58.1936H66.938C67.3196 58.1936 67.6617 58.1179 67.9644 57.9666C68.2736 57.8087 68.517 57.585 68.6947 57.2955C68.8789 56.9994 68.971 56.6441 68.971 56.2296C68.971 55.677 68.7868 55.223 68.4183 54.8677C68.0499 54.5124 67.5564 54.3348 66.938 54.3348H63.4739V58.1936ZM77.1229 66.8981C76.3333 66.8981 75.6721 66.7534 75.1392 66.4639C74.6062 66.1678 74.2016 65.7796 73.9253 65.2993C73.6555 64.8125 73.5206 64.2795 73.5206 63.7005C73.5206 63.161 73.616 62.6873 73.8069 62.2794C73.9977 61.8715 74.2806 61.5261 74.6556 61.2431C75.0306 60.9536 75.4912 60.7201 76.0373 60.5424C76.511 60.4043 77.0472 60.2825 77.6459 60.1773C78.2447 60.072 78.873 59.9733 79.5309 59.8812C80.1954 59.7891 80.8534 59.697 81.5047 59.6049L80.7547 60.0194C80.7678 59.1838 80.5902 58.5653 80.2218 58.164C79.8599 57.7561 79.2348 57.5521 78.3466 57.5521C77.7874 57.5521 77.2742 57.6837 76.8071 57.9469C76.3399 58.2035 76.0142 58.6311 75.83 59.2298L73.9055 58.6377C74.1687 57.7232 74.6688 56.9961 75.4056 56.4566C76.1491 55.9171 77.136 55.6474 78.3664 55.6474C79.3204 55.6474 80.1494 55.8118 80.8534 56.1408C81.564 56.4632 82.0837 56.9764 82.4127 57.6804C82.5838 58.0291 82.689 58.3976 82.7285 58.7857C82.768 59.1739 82.7877 59.5917 82.7877 60.0391V66.6021H80.9619V64.1644L81.3172 64.4802C80.8764 65.296 80.3139 65.9046 79.6296 66.306C78.9519 66.7007 78.1164 66.8981 77.1229 66.8981ZM77.488 65.2105C78.0736 65.2105 78.5769 65.1085 78.998 64.9046C79.4191 64.694 79.7579 64.4276 80.0145 64.1052C80.2711 63.7828 80.4389 63.4472 80.5178 63.0985C80.6297 62.7827 80.6922 62.4274 80.7053 62.0327C80.7251 61.6379 80.735 61.3221 80.735 61.0852L81.406 61.332C80.7547 61.4306 80.1625 61.5195 79.6296 61.5984C79.0967 61.6774 78.6131 61.7563 78.1789 61.8353C77.7512 61.9077 77.3696 61.9965 77.034 62.1017C76.7511 62.2004 76.4978 62.3189 76.2741 62.457C76.057 62.5952 75.8826 62.763 75.7511 62.9604C75.6261 63.1577 75.5635 63.3979 75.5635 63.6808C75.5635 63.9571 75.6326 64.2137 75.7708 64.4506C75.909 64.6809 76.1195 64.8651 76.4024 65.0033C76.6853 65.1414 77.0472 65.2105 77.488 65.2105ZM93.226 66.6021V61.3616C93.226 60.9471 93.1898 60.5227 93.1174 60.0885C93.0516 59.6476 92.92 59.2397 92.7227 58.8647C92.5318 58.4897 92.2588 58.187 91.9035 57.9567C91.5548 57.7265 91.0975 57.6113 90.5317 57.6113C90.1633 57.6113 89.8146 57.6738 89.4856 57.7988C89.1566 57.9173 88.8671 58.1113 88.6171 58.3811C88.3737 58.6509 88.1796 59.0061 88.0348 59.447C87.8967 59.8878 87.8276 60.424 87.8276 61.0556L86.5446 60.572C86.5446 59.6049 86.7255 58.7528 87.0874 58.0159C87.4493 57.2725 87.969 56.6935 88.6467 56.279C89.3244 55.8645 90.1435 55.6572 91.1041 55.6572C91.841 55.6572 92.4595 55.7757 92.9595 56.0125C93.4595 56.2494 93.8642 56.5619 94.1734 56.9501C94.4892 57.3317 94.7294 57.7495 94.8939 58.2035C95.0583 58.6574 95.1702 59.1015 95.2294 59.5358C95.2886 59.97 95.3182 60.3516 95.3182 60.6806V66.6021H93.226ZM85.7353 66.6021V55.9434H87.5809V59.0226H87.8276V66.6021H85.7353ZM101.294 66.8981C100.504 66.8981 99.8429 66.7534 99.31 66.4639C98.777 66.1678 98.3724 65.7796 98.0961 65.2993C97.8263 64.8125 97.6914 64.2795 97.6914 63.7005C97.6914 63.161 97.7868 62.6873 97.9776 62.2794C98.1684 61.8715 98.4513 61.5261 98.8264 61.2431C99.2014 60.9536 99.662 60.7201 100.208 60.5424C100.682 60.4043 101.218 60.2825 101.817 60.1773C102.415 60.072 103.044 59.9733 103.702 59.8812C104.366 59.7891 105.024 59.697 105.676 59.6049L104.925 60.0194C104.939 59.1838 104.761 58.5653 104.393 58.164C104.031 57.7561 103.406 57.5521 102.517 57.5521C101.958 57.5521 101.445 57.6837 100.978 57.9469C100.511 58.2035 100.185 58.6311 100.001 59.2298L98.0763 58.6377C98.3395 57.7232 98.8395 56.9961 99.5764 56.4566C100.32 55.9171 101.307 55.6474 102.537 55.6474C103.491 55.6474 104.32 55.8118 105.024 56.1408C105.735 56.4632 106.255 56.9764 106.583 57.6804C106.755 58.0291 106.86 58.3976 106.899 58.7857C106.939 59.1739 106.959 59.5917 106.959 60.0391V66.6021H105.133V64.1644L105.488 64.4802C105.047 65.296 104.485 65.9046 103.8 66.306C103.123 66.7007 102.287 66.8981 101.294 66.8981ZM101.659 65.2105C102.244 65.2105 102.748 65.1085 103.169 64.9046C103.59 64.694 103.929 64.4276 104.185 64.1052C104.442 63.7828 104.61 63.4472 104.689 63.0985C104.8 62.7827 104.863 62.4274 104.876 62.0327C104.896 61.6379 104.906 61.3221 104.906 61.0852L105.577 61.332C104.925 61.4306 104.333 61.5195 103.8 61.5984C103.267 61.6774 102.784 61.7563 102.35 61.8353C101.922 61.9077 101.54 61.9965 101.205 62.1017C100.922 62.2004 100.669 62.3189 100.445 62.457C100.228 62.5952 100.053 62.763 99.9218 62.9604C99.7968 63.1577 99.7343 63.3979 99.7343 63.6808C99.7343 63.9571 99.8034 64.2137 99.9416 64.4506C100.08 64.6809 100.29 64.8651 100.573 65.0033C100.856 65.1414 101.218 65.2105 101.659 65.2105ZM117.397 66.6021V61.3616C117.397 60.9471 117.361 60.5227 117.288 60.0885C117.222 59.6476 117.091 59.2397 116.893 58.8647C116.703 58.4897 116.43 58.187 116.074 57.9567C115.726 57.7265 115.268 57.6113 114.702 57.6113C114.334 57.6113 113.985 57.6738 113.656 57.7988C113.327 57.9173 113.038 58.1113 112.788 58.3811C112.544 58.6509 112.35 59.0061 112.206 59.447C112.067 59.8878 111.998 60.424 111.998 61.0556L110.715 60.572C110.715 59.6049 110.896 58.7528 111.258 58.0159C111.62 57.2725 112.14 56.6935 112.818 56.279C113.495 55.8645 114.314 55.6572 115.275 55.6572C116.012 55.6572 116.63 55.7757 117.13 56.0125C117.63 56.2494 118.035 56.5619 118.344 56.9501C118.66 57.3317 118.9 57.7495 119.065 58.2035C119.229 58.6574 119.341 59.1015 119.4 59.5358C119.459 59.97 119.489 60.3516 119.489 60.6806V66.6021H117.397ZM109.906 66.6021V55.9434H111.752V59.0226H111.998V66.6021H109.906ZM125.464 66.8981C124.675 66.8981 124.014 66.7534 123.481 66.4639C122.948 66.1678 122.543 65.7796 122.267 65.2993C121.997 64.8125 121.862 64.2795 121.862 63.7005C121.862 63.161 121.958 62.6873 122.148 62.2794C122.339 61.8715 122.622 61.5261 122.997 61.2431C123.372 60.9536 123.833 60.7201 124.379 60.5424C124.853 60.4043 125.389 60.2825 125.987 60.1773C126.586 60.072 127.215 59.9733 127.872 59.8812C128.537 59.7891 129.195 59.697 129.846 59.6049L129.096 60.0194C129.109 59.1838 128.932 58.5653 128.563 58.164C128.201 57.7561 127.576 57.5521 126.688 57.5521C126.129 57.5521 125.616 57.6837 125.149 57.9469C124.681 58.2035 124.356 58.6311 124.172 59.2298L122.247 58.6377C122.51 57.7232 123.01 56.9961 123.747 56.4566C124.491 55.9171 125.478 55.6474 126.708 55.6474C127.662 55.6474 128.491 55.8118 129.195 56.1408C129.906 56.4632 130.425 56.9764 130.754 57.6804C130.925 58.0291 131.031 58.3976 131.07 58.7857C131.11 59.1739 131.129 59.5917 131.129 60.0391V66.6021H129.303V64.1644L129.659 64.4802C129.218 65.296 128.655 65.9046 127.971 66.306C127.293 66.7007 126.458 66.8981 125.464 66.8981ZM125.83 65.2105C126.415 65.2105 126.918 65.1085 127.34 64.9046C127.761 64.694 128.099 64.4276 128.356 64.1052C128.613 63.7828 128.78 63.4472 128.859 63.0985C128.971 62.7827 129.034 62.4274 129.047 62.0327C129.067 61.6379 129.077 61.3221 129.077 61.0852L129.748 61.332C129.096 61.4306 128.504 61.5195 127.971 61.5984C127.438 61.6774 126.955 61.7563 126.52 61.8353C126.093 61.9077 125.711 61.9965 125.376 62.1017C125.093 62.2004 124.839 62.3189 124.616 62.457C124.399 62.5952 124.224 62.763 124.093 62.9604C123.968 63.1577 123.905 63.3979 123.905 63.6808C123.905 63.9571 123.974 64.2137 124.112 64.4506C124.251 64.6809 124.461 64.8651 124.744 65.0033C125.027 65.1414 125.389 65.2105 125.83 65.2105ZM138.433 66.6021V52.3906H144.019C144.92 52.3906 145.677 52.5748 146.289 52.9432C146.901 53.3117 147.361 53.7887 147.67 54.3743C147.98 54.9532 148.134 55.5651 148.134 56.2099C148.134 56.9929 147.94 57.6639 147.552 58.2232C147.17 58.7824 146.654 59.164 146.003 59.368L145.983 58.8844C146.891 59.1081 147.588 59.5457 148.075 60.197C148.562 60.8418 148.805 61.5951 148.805 62.457C148.805 63.2926 148.638 64.0196 148.302 64.6381C147.973 65.2566 147.49 65.7402 146.851 66.0889C146.22 66.431 145.453 66.6021 144.552 66.6021H138.433ZM140.525 64.6381H144.236C144.703 64.6381 145.121 64.5493 145.489 64.3716C145.864 64.194 146.157 63.9407 146.368 63.6117C146.585 63.2762 146.693 62.8781 146.693 62.4176C146.693 61.9899 146.598 61.605 146.407 61.2629C146.223 60.9142 145.953 60.6411 145.598 60.4437C145.249 60.2398 144.838 60.1378 144.364 60.1378H140.525V64.6381ZM140.525 58.1936H143.989C144.371 58.1936 144.713 58.1179 145.016 57.9666C145.325 57.8087 145.568 57.585 145.746 57.2955C145.93 56.9994 146.022 56.6441 146.022 56.2296C146.022 55.677 145.838 55.223 145.47 54.8677C145.101 54.5124 144.608 54.3348 143.989 54.3348H140.525V58.1936ZM151.164 66.6021V55.9434H153V58.5291L152.743 58.1936C152.875 57.8515 153.046 57.5389 153.256 57.256C153.467 56.9665 153.71 56.7297 153.987 56.5455C154.256 56.3481 154.556 56.1967 154.885 56.0915C155.22 55.9796 155.562 55.9138 155.911 55.8941C156.26 55.8678 156.595 55.8842 156.918 55.9434V57.8778C156.569 57.7857 156.181 57.7593 155.753 57.7988C155.332 57.8383 154.944 57.9732 154.589 58.2035C154.253 58.4206 153.987 58.6838 153.789 58.993C153.599 59.3022 153.46 59.6476 153.375 60.0292C153.289 60.4043 153.247 60.8023 153.247 61.2234V66.6021H151.164ZM161.913 66.8981C161.123 66.8981 160.462 66.7534 159.929 66.4639C159.396 66.1678 158.992 65.7796 158.715 65.2993C158.446 64.8125 158.311 64.2795 158.311 63.7005C158.311 63.161 158.406 62.6873 158.597 62.2794C158.788 61.8715 159.071 61.5261 159.446 61.2431C159.821 60.9536 160.281 60.7201 160.827 60.5424C161.301 60.4043 161.837 60.2825 162.436 60.1773C163.035 60.072 163.663 59.9733 164.321 59.8812C164.986 59.7891 165.643 59.697 166.295 59.6049L165.545 60.0194C165.558 59.1838 165.38 58.5653 165.012 58.164C164.65 57.7561 164.025 57.5521 163.137 57.5521C162.577 57.5521 162.064 57.6837 161.597 57.9469C161.13 58.2035 160.804 58.6311 160.62 59.2298L158.696 58.6377C158.959 57.7232 159.459 56.9961 160.196 56.4566C160.939 55.9171 161.926 55.6474 163.156 55.6474C164.11 55.6474 164.939 55.8118 165.643 56.1408C166.354 56.4632 166.874 56.9764 167.203 57.6804C167.374 58.0291 167.479 58.3976 167.519 58.7857C167.558 59.1739 167.578 59.5917 167.578 60.0391V66.6021H165.752V64.1644L166.107 64.4802C165.667 65.296 165.104 65.9046 164.42 66.306C163.742 66.7007 162.906 66.8981 161.913 66.8981ZM162.278 65.2105C162.864 65.2105 163.367 65.1085 163.788 64.9046C164.209 64.694 164.548 64.4276 164.805 64.1052C165.061 63.7828 165.229 63.4472 165.308 63.0985C165.42 62.7827 165.482 62.4274 165.495 62.0327C165.515 61.6379 165.525 61.3221 165.525 61.0852L166.196 61.332C165.545 61.4306 164.953 61.5195 164.42 61.5984C163.887 61.6774 163.403 61.7563 162.969 61.8353C162.541 61.9077 162.16 61.9965 161.824 62.1017C161.541 62.2004 161.288 62.3189 161.064 62.457C160.847 62.5952 160.673 62.763 160.541 62.9604C160.416 63.1577 160.354 63.3979 160.354 63.6808C160.354 63.9571 160.423 64.2137 160.561 64.4506C160.699 64.6809 160.91 64.8651 161.193 65.0033C161.475 65.1414 161.837 65.2105 162.278 65.2105ZM178.016 66.6021V61.3616C178.016 60.9471 177.98 60.5227 177.908 60.0885C177.842 59.6476 177.71 59.2397 177.513 58.8647C177.322 58.4897 177.049 58.187 176.694 57.9567C176.345 57.7265 175.888 57.6113 175.322 57.6113C174.953 57.6113 174.605 57.6738 174.276 57.7988C173.947 57.9173 173.657 58.1113 173.407 58.3811C173.164 58.6509 172.97 59.0061 172.825 59.447C172.687 59.8878 172.618 60.424 172.618 61.0556L171.335 60.572C171.335 59.6049 171.516 58.7528 171.878 58.0159C172.239 57.2725 172.759 56.6935 173.437 56.279C174.114 55.8645 174.934 55.6572 175.894 55.6572C176.631 55.6572 177.25 55.7757 177.75 56.0125C178.25 56.2494 178.654 56.5619 178.964 56.9501C179.279 57.3317 179.519 57.7495 179.684 58.2035C179.848 58.6574 179.96 59.1015 180.019 59.5358C180.079 59.97 180.108 60.3516 180.108 60.6806V66.6021H178.016ZM170.525 66.6021V55.9434H172.371V59.0226H172.618V66.6021H170.525ZM187.173 66.8981C186.179 66.8981 185.32 66.6514 184.597 66.1579C183.88 65.6645 183.324 64.9934 182.929 64.1446C182.541 63.2893 182.347 62.3287 182.347 61.2629C182.347 60.1904 182.544 59.2331 182.939 58.391C183.334 57.5422 183.893 56.8744 184.616 56.3875C185.347 55.8941 186.212 55.6474 187.212 55.6474C188.219 55.6474 189.064 55.8941 189.748 56.3875C190.439 56.8744 190.959 57.5422 191.308 58.391C191.663 59.2397 191.841 60.197 191.841 61.2629C191.841 62.3287 191.663 63.286 191.308 64.1348C190.952 64.9835 190.429 65.6579 189.739 66.1579C189.048 66.6514 188.192 66.8981 187.173 66.8981ZM187.459 65.0329C188.136 65.0329 188.689 64.8717 189.117 64.5493C189.544 64.2269 189.857 63.7828 190.054 63.217C190.252 62.6511 190.35 61.9998 190.35 61.2629C190.35 60.526 190.248 59.8746 190.044 59.3088C189.847 58.743 189.538 58.3021 189.117 57.9863C188.702 57.6705 188.173 57.5126 187.528 57.5126C186.844 57.5126 186.281 57.6804 185.84 58.0159C185.399 58.3515 185.07 58.8022 184.853 59.368C184.643 59.9338 184.538 60.5655 184.538 61.2629C184.538 61.9669 184.643 62.6051 184.853 63.1775C185.07 63.7433 185.393 64.194 185.821 64.5295C186.255 64.8651 186.801 65.0329 187.459 65.0329ZM190.35 66.6021V58.9338H190.114V52.3906H192.186V66.6021H190.35Z" fill="black"/>
<g clip-path="url(#clip4)">
<path d="M216.773 59.102C216.773 52.8129 221.872 47.7146 228.161 47.7146C234.45 47.7146 239.548 52.8129 239.548 59.102C239.548 65.3911 234.45 70.4894 228.161 70.4894C221.872 70.4894 216.773 65.3911 216.773 59.102Z" fill="#005CA8"/>
<path d="M245.621 59.102C245.621 52.8129 250.719 47.7146 257.009 47.7146C263.298 47.7146 268.396 52.8129 268.396 59.102C268.396 65.3911 263.298 70.4894 257.009 70.4894C250.719 70.4894 245.621 65.3911 245.621 59.102Z" fill="#FFE000"/>
<path d="M314.706 47.9647C320.857 47.9647 325.844 52.9511 325.844 59.1021L326.344 59.1021C326.344 52.6749 321.134 47.4647 314.706 47.4647L314.706 47.9647ZM303.569 59.1021C303.569 52.9511 308.555 47.9647 314.706 47.9647L314.706 47.4647C308.279 47.4647 303.069 52.6749 303.069 59.1021L303.569 59.1021ZM314.706 70.2395C308.555 70.2395 303.569 65.2531 303.569 59.1021L303.069 59.1021C303.069 65.5293 308.279 70.7395 314.706 70.7395L314.706 70.2395ZM314.706 70.7395C321.134 70.7395 326.344 65.5293 326.344 59.1021L325.844 59.1021C325.844 65.2531 320.857 70.2395 314.706 70.2395L314.706 70.7395Z" fill="#BABABA"/>
<path d="M297.242 59.1021C297.242 65.3912 292.144 70.4895 285.855 70.4895C279.566 70.4895 274.467 65.3912 274.467 59.1021C274.467 52.813 279.566 47.7147 285.855 47.7147C292.144 47.7147 297.242 52.813 297.242 59.1021Z" fill="#FFF0A4"/>
</g>
</g>
<rect y="122.244" width="30" height="198" fill="#005CA8"/>
<rect y="319.763" width="30" height="198" fill="#FFE000"/>
<rect y="519" width="30" height="198" fill="#FFF0A4"/>
<rect x="373.109" y="458.479" width="373.108" height="83.1762" transform="rotate(-180 373.109 458.479)" fill="url(#paint0_linear)"/>
<path d="M52.9476 396.88H52.9111C41.8692 396.88 32.918 405.839 32.918 416.891C32.918 427.943 41.8692 436.903 52.9111 436.903H52.9476C63.9895 436.903 72.9408 427.943 72.9408 416.891C72.9408 405.839 63.9895 396.88 52.9476 396.88Z" fill="white"/>
<rect y="541.656" width="373.11" height="83.18" fill="url(#paint1_linear)"/>
<path d="M67.9476 563.234H67.9111C56.8692 563.234 47.918 572.194 47.918 583.246C47.918 594.298 56.8692 603.257 67.9111 603.257H67.9476C78.9895 603.257 87.9408 594.298 87.9408 583.246C87.9408 572.194 78.9895 563.234 67.9476 563.234Z" fill="white"/>
<rect x="373.109" y="541.656" width="373.108" height="83.1762" transform="rotate(-180 373.109 541.656)" fill="url(#paint2_linear)"/>
<path d="M310.514 480.056H310.477C299.436 480.056 290.484 489.016 290.484 500.068C290.484 511.12 299.436 520.079 310.477 520.079H310.514C321.556 520.079 330.507 511.12 330.507 500.068C330.507 489.016 321.556 480.056 310.514 480.056Z" fill="white"/>
</g>
<defs>
<linearGradient id="paint0_linear" x1="373.109" y1="541.656" x2="746.218" y2="541.656" gradientUnits="userSpaceOnUse">
<stop stop-color="white"/>
<stop offset="1" stop-color="#FFCE00"/>
</linearGradient>
<linearGradient id="paint1_linear" x1="0" y1="624.836" x2="373.11" y2="624.836" gradientUnits="userSpaceOnUse">
<stop stop-color="#FF4700"/>
<stop offset="0.176449" stop-color="#FEF300"/>
<stop offset="0.352261" stop-color="#00FF01"/>
<stop offset="0.522211" stop-color="#00F3FE"/>
<stop offset="0.695092" stop-color="#0000FE"/>
<stop offset="0.847462" stop-color="#FD01FE"/>
<stop offset="1" stop-color="#FF0140"/>
</linearGradient>
<linearGradient id="paint2_linear" x1="373.109" y1="624.832" x2="746.218" y2="624.832" gradientUnits="userSpaceOnUse">
<stop/>
<stop offset="1" stop-color="#FFE000"/>
</linearGradient>
<clipPath id="clip0">
<rect width="821" height="582" fill="white"/>
</clipPath>
<clipPath id="clip1">
<rect width="29.1684" height="29.1684" fill="white" transform="translate(225.332 404.66)"/>
</clipPath>
<clipPath id="clip2">
<rect width="29.1684" height="29.1684" fill="white" transform="translate(225.332 206.66)"/>
</clipPath>
<clipPath id="clip3">
<rect width="361.748" height="27" fill="white" transform="translate(60 45.6021)"/>
</clipPath>
<clipPath id="clip4">
<rect width="204.973" height="22.7748" fill="white" transform="translate(216.773 47.7146)"/>
</clipPath>
</defs>
</svg>
