<svg width="70" height="40" viewBox="0 0 70 40" fill="none" xmlns="http://www.w3.org/2000/svg">
<g clip-path="url(#clip0)">
<path d="M69.0594 18.4362C68.9418 18.248 66.214 13.7095 60.8525 9.19455C57.4898 6.37268 53.8448 4.16222 49.9883 2.63371V9.31213C52.3398 10.4644 54.5738 11.9459 56.7373 13.7566C59.5826 16.0846 61.5815 18.4832 62.7102 19.9882C60.829 22.4808 56.5726 27.4191 49.9883 30.6878V37.3897C53.8448 35.8612 57.4898 33.6507 60.8525 30.8289C66.1905 26.3139 68.9418 21.7754 69.0594 21.5873L70 20.0117L69.0594 18.4362Z" fill="black"/>
<path d="M14.4567 26.8782C14.198 26.6665 13.9394 26.4784 13.7042 26.2668C10.8588 23.9152 8.85999 21.5166 7.70772 19.9881C8.83647 18.4831 10.8353 16.0845 13.6572 13.733C13.9158 13.5213 14.1745 13.3097 14.4332 13.1216V5.62009C6.0146 10.8641 1.66422 17.9423 1.38203 18.4126L0.441406 19.9881L1.38203 21.5637C1.49961 21.7518 4.22742 26.2903 9.58897 30.8053C11.141 32.1221 12.7636 33.2979 14.4567 34.3326V26.8782Z" fill="black"/>
<path d="M36.6785 13.3331V26.6664C32.9865 26.6664 30.0236 23.68 30.0236 20.0115C30.0001 16.3196 32.9865 13.3331 36.6785 13.3331Z" fill="black"/>
<path d="M36.6797 6.65502V13.3099C40.3716 13.3099 43.3346 16.2964 43.3346 19.9648C43.3346 23.6568 40.3481 26.6198 36.6797 26.6198V33.2747C44.0401 33.2747 50.013 27.3017 50.013 19.9413C50.013 12.628 44.0401 6.65502 36.6797 6.65502Z" fill="black"/>
<path d="M16.668 19.9882C16.668 31.0406 25.6274 39.9765 36.6562 39.9765V33.3216C29.2958 33.3216 23.3229 27.3486 23.3229 19.9882C23.3229 12.6279 29.2958 6.65491 36.6562 6.65491V0C25.6274 0 16.668 8.95943 16.668 19.9882Z" fill="black"/>
</g>
<defs>
<clipPath id="clip0">
<rect width="69.5591" height="40" fill="white" transform="translate(0.441406)"/>
</clipPath>
</defs>
</svg>
