<svg width="57" height="30" viewBox="0 0 57 30" fill="none" xmlns="http://www.w3.org/2000/svg">
<path fill-rule="evenodd" clip-rule="evenodd" d="M48.1747 4.70911C48.1747 7.30567 46.0727 9.41218 43.4762 9.41792C40.8796 9.42364 38.7684 7.32644 38.7569 4.7299C38.7454 2.13336 40.8379 0.0174973 43.4344 0.000186817C44.6896 -0.0109987 45.897 0.480513 46.7875 1.36513C47.678 2.24974 48.1776 3.4539 48.1747 4.70911ZM12.5527 0.000175065C9.95201 0.000175065 7.84375 2.10844 7.84375 4.70911C7.84375 7.30977 9.95201 9.41803 12.5527 9.41803C15.1533 9.41803 17.2616 7.30977 17.2616 4.70911C17.2644 3.45937 16.7692 2.26002 15.8855 1.37632C15.0018 0.492623 13.8024 -0.00259973 12.5527 0.000175065ZM42.9051 29.5408C44.1616 28.8273 44.6058 27.2329 43.8992 25.9725C40.6476 20.2252 34.555 16.6721 27.9517 16.6721C21.3483 16.6721 15.2557 20.2252 12.0041 25.9725C11.5077 26.788 11.4949 27.8092 11.9707 28.6368C12.4466 29.4645 13.3355 29.9672 14.2901 29.9485C15.2446 29.9297 16.1131 29.3924 16.5561 28.5467C18.8787 24.4387 23.2325 21.8987 27.9517 21.8987C32.6708 21.8987 37.0247 24.4387 39.3473 28.5467C40.0567 29.8019 41.6478 30.2465 42.9051 29.5408Z" fill="#BABABA"/>
</svg>
