<svg width="57" height="32" viewBox="0 0 57 32" fill="none" xmlns="http://www.w3.org/2000/svg">
<g opacity="0.7">
<path d="M43.4762 9.41792C46.0727 9.41218 48.1747 7.30567 48.1747 4.70911C48.1776 3.4539 47.678 2.24974 46.7875 1.36513C45.897 0.480513 44.6896 -0.0109987 43.4344 0.000186817C40.8379 0.0174973 38.7454 2.13336 38.7569 4.7299C38.7684 7.32644 40.8796 9.42364 43.4762 9.41792Z" fill="white"/>
<path d="M7.84375 4.70911C7.84375 2.10844 9.95201 0.000175132 12.5527 0.000175132C13.8024 -0.00259966 15.0018 0.492623 15.8855 1.37632C16.7692 2.26002 17.2644 3.45937 17.2616 4.70911C17.2616 7.30977 15.1533 9.41803 12.5527 9.41803C9.95201 9.41803 7.84375 7.30977 7.84375 4.70911Z" fill="white"/>
<path d="M27.6708 21.9751H27.9307H42.122C43.5668 21.9751 44.7381 23.1464 44.7381 24.5912C44.7381 26.036 43.5668 27.2073 42.122 27.2073H27.9307H27.6708H13.4796C12.0348 27.2073 10.8635 26.036 10.8635 24.5912C10.8635 23.1464 12.0348 21.9751 13.4796 21.9751H27.6708Z" fill="white"/>
</g>
</svg>
