<svg width="57" height="30" viewBox="0 0 57 30" fill="none" xmlns="http://www.w3.org/2000/svg">
<path fill-rule="evenodd" clip-rule="evenodd" d="M17.5661 9.7327C16.801 9.7327 16.0807 9.37251 15.6216 8.76048L13.9203 6.49522L12.2189 8.76048C11.4135 9.83437 9.88999 10.052 8.81611 9.24659C7.74223 8.44118 7.52459 6.91771 8.33 5.84383L11.9758 0.982742C12.3295 0.508125 12.8449 0.179549 13.4244 0.0591355L13.6772 0.0105246C14.264 -0.0440289 14.8508 0.114748 15.33 0.457745L15.4369 0.545244C15.6161 0.679745 15.7707 0.844201 15.8939 1.03135L19.5105 5.84383C20.0629 6.58033 20.1517 7.5657 19.74 8.38913C19.3283 9.21256 18.4867 9.7327 17.5661 9.7327ZM47.2028 9.24659C47.7207 8.86142 48.0633 8.28539 48.1546 7.64646C48.2458 7.00753 48.0782 6.3586 47.6889 5.84383L44.0819 1.03135C43.9556 0.846712 43.8015 0.682734 43.625 0.545244L43.5181 0.457745C43.0407 0.118584 42.4584 -0.0399195 41.875 0.0105246H41.6125C41.0284 0.143759 40.5152 0.490524 40.1736 0.982742L36.5084 5.84383C36.1959 6.26616 36.0257 6.77682 36.0223 7.30216C36.0223 8.34834 36.6917 9.27714 37.6842 9.60797C38.6767 9.9388 39.7695 9.59743 40.3972 8.76048L42.1083 6.49522L43.8 8.76048C44.263 9.36776 44.9808 9.7267 45.7444 9.7327C46.2711 9.73777 46.7844 9.56667 47.2028 9.24659ZM42.826 20.9132C43.2572 20.1625 43.2546 19.2386 42.8192 18.4903C42.3839 17.742 41.5821 17.2831 40.7163 17.2868H15.3123C14.4473 17.2856 13.6469 17.7442 13.2104 18.4909C12.774 19.2377 12.7673 20.1602 13.1928 20.9132C16.2139 26.2529 21.8744 29.5541 28.0094 29.5541C34.1445 29.5541 39.805 26.2529 42.826 20.9132Z" fill="black"/>
</svg>
